<?xml version="1.0" standalone="no"?>
<!DOCTYPE svg PUBLIC "-//W3C//DTD SVG 20010904//EN"
 "http://www.w3.org/TR/2001/REC-SVG-20010904/DTD/svg10.dtd">
<svg version="1.0" xmlns="http://www.w3.org/2000/svg"
 width="450.000000pt" height="450.000000pt" viewBox="0 0 450.000000 450.000000"
 preserveAspectRatio="xMidYMid meet">
<metadata>
Created by potrace 1.14, written by Peter Selinger 2001-2017
</metadata>
<g transform="translate(0.000000,450.000000) scale(0.100000,-0.100000)"
fill="#000000" stroke="none">
<path d="M0 2250 l0 -2250 688 0 688 0 -1 164 0 164 40 81 c21 44 43 81 47 81
5 0 6 -35 2 -77 -9 -124 36 -265 123 -381 27 -36 78 -47 66 -14 -4 9 -11 20
-17 25 -7 5 -6 11 5 20 12 9 14 16 5 29 -5 9 -7 21 -3 25 5 4 12 1 18 -7 6
-10 7 -5 3 17 -6 29 -3 34 22 45 23 10 29 20 31 46 1 26 -2 32 -18 32 -20 0
-23 8 -11 28 6 9 14 6 32 -13 12 -13 27 -22 32 -19 9 6 40 -21 32 -29 -8 -8
106 -117 176 -169 l65 -48 282 0 c182 0 283 4 283 10 0 6 5 10 11 10 5 0 7 -4
4 -10 -4 -6 6 -10 22 -10 32 1 129 83 118 100 -3 5 1 10 9 10 9 0 24 8 34 18
10 10 26 21 35 25 9 3 17 13 17 22 0 8 9 15 20 15 11 0 20 5 20 11 0 6 -7 9
-15 5 -8 -3 -15 -1 -15 5 0 5 8 13 18 16 9 4 31 20 47 35 17 15 34 28 39 28 5
0 15 8 22 17 9 12 13 13 14 5 0 -8 8 -6 22 8 29 27 51 27 43 -1 -5 -16 -4 -19
5 -14 7 4 16 1 22 -6 7 -10 8 -8 4 7 -4 14 2 28 19 44 14 13 25 18 25 12 0 -6
-4 -14 -10 -17 -13 -8 -13 -45 -1 -45 5 0 12 -8 14 -17 4 -17 5 -17 6 0 0 9 5
17 10 17 5 0 11 10 13 23 2 17 9 21 28 19 16 -1 21 1 12 6 -16 11 -5 42 15 42
8 0 11 5 8 10 -4 6 -2 16 3 23 5 7 12 77 15 157 3 79 9 146 14 147 25 9 65
-103 124 -347 21 -88 31 -310 15 -357 l-7 -23 555 0 556 0 0 2250 0 2250
-2250 0 -2250 0 0 -2250z m2290 2166 c0 -16 -32 -26 -61 -19 -20 5 -20 6 3 18
31 18 58 18 58 1z m-141 -22 c13 -12 -8 -10 -29 2 l-25 15 25 -7 c14 -3 27 -8
29 -10z m168 -6 c-3 -8 -6 -5 -6 6 -1 11 2 17 5 13 3 -3 4 -12 1 -19z m443 11
c0 -8 -32 -19 -72 -25 -16 -2 -28 1 -28 6 0 15 -15 12 -38 -9 -12 -10 -22 -26
-22 -35 0 -10 -4 -15 -10 -11 -6 4 -5 16 1 33 6 15 10 29 9 32 -3 9 32 15 95
15 36 1 65 -2 65 -6z m-265 -8 c7 -12 -32 -34 -45 -26 -6 3 -10 12 -10 18 0 8
3 8 9 -1 7 -11 9 -11 14 2 7 18 23 21 32 7z m50 -1 c3 -5 -1 -10 -9 -10 -9 0
-16 5 -16 10 0 6 4 10 9 10 6 0 13 -4 16 -10z m245 -5 c-7 -9 -15 -13 -17 -11
-7 7 7 26 19 26 6 0 6 -6 -2 -15z m73 -44 c6 -6 -3 -16 -24 -26 -21 -12 -34
-14 -37 -7 -2 6 -9 9 -16 6 -10 -4 -12 2 -8 22 4 24 8 26 40 20 19 -3 40 -10
45 -15z m-109 -17 c3 -8 2 -12 -4 -9 -6 3 -10 1 -10 -6 0 -7 -3 -10 -6 -6 -7
6 2 37 10 37 2 0 7 -7 10 -16z m156 -10 c0 -2 -7 -4 -15 -4 -8 0 -15 4 -15 10
0 5 7 7 15 4 8 -4 15 -8 15 -10z m-175 -34 c3 -5 1 -10 -4 -10 -6 0 -11 5 -11
10 0 6 2 10 4 10 3 0 8 -4 11 -10z m254 -4 c32 -11 33 -13 17 -29 -21 -21 -53
-22 -72 -2 -11 11 -20 12 -34 5 -10 -6 -27 -10 -37 -10 -15 1 -13 5 10 25 31
27 63 30 116 11z m71 -55 c0 -5 -16 -12 -36 -15 -19 -4 -43 -10 -51 -13 -11
-5 -14 -3 -9 6 15 24 96 43 96 22z m0 -46 c-14 -17 -40 -20 -40 -6 0 8 18 16
44 20 5 0 3 -6 -4 -14z m50 -25 c0 -5 -7 -10 -16 -10 -8 0 -12 5 -9 10 3 6 10
10 16 10 5 0 9 -4 9 -10z m7 -56 c2 -7 -6 -10 -21 -7 -14 3 -23 10 -20 15 8
12 36 6 41 -8z m48 6 c3 -5 1 -10 -4 -10 -6 0 -11 5 -11 10 0 6 2 10 4 10 3 0
8 -4 11 -10z m-993 -37 c11 -9 18 -11 18 -5 0 13 52 16 64 5 4 -5 17 -9 29
-10 12 0 36 -5 52 -9 17 -4 45 -8 63 -8 17 -1 32 -4 32 -8 0 -7 33 -5 97 7 26
4 48 4 55 -2 7 -6 47 -13 88 -17 75 -6 183 -42 174 -58 -3 -4 2 -5 10 -2 8 3
61 -18 117 -48 75 -39 110 -64 131 -93 16 -22 38 -40 48 -40 21 -1 52 -24 45
-35 -3 -5 3 -6 12 -4 10 3 35 -4 56 -15 31 -16 37 -16 37 -4 0 13 3 13 15 3
10 -8 15 -9 15 -1 0 6 -11 18 -24 26 -13 9 -27 23 -30 31 -8 20 -3 18 32 -15
30 -29 38 -70 17 -89 -4 -4 -5 -1 -1 6 4 6 2 12 -4 12 -19 0 -6 -60 21 -93 35
-43 54 -106 33 -114 -7 -3 -12 -9 -9 -13 8 -12 -6 -41 -16 -34 -5 3 -14 2 -19
-1 -7 -4 3 -24 25 -51 40 -48 37 -52 -21 -29 -30 12 -35 13 -21 2 9 -8 17 -17
17 -21 0 -4 9 -16 20 -28 11 -12 17 -24 14 -27 -4 -3 -9 0 -11 7 -3 6 -17 12
-31 11 -15 0 -21 -3 -14 -6 6 -2 10 -9 7 -14 -4 -5 1 -6 9 -3 21 8 21 -15 0
-44 -9 -13 -13 -29 -10 -37 3 -8 0 -15 -7 -15 -18 0 -19 -40 -1 -47 8 -3 14
-9 14 -13 0 -5 -11 -3 -25 3 -14 7 -25 19 -25 27 0 11 -2 12 -12 1 -11 -10 -9
-15 7 -27 11 -9 19 -20 18 -25 -2 -5 2 -9 7 -9 7 0 7 -6 0 -19 -13 -25 -13
-82 1 -155 10 -56 4 -93 -8 -48 -3 12 -10 22 -15 22 -5 0 -8 8 -7 18 1 9 -1
25 -6 35 -6 15 -10 16 -16 5 -7 -10 -9 -9 -9 5 0 9 -7 17 -16 17 -11 0 -14 6
-9 20 5 16 3 19 -11 13 -11 -4 -15 -2 -11 4 7 11 -61 39 -118 50 -29 6 -86 40
-93 56 -2 4 -7 5 -12 2 -4 -2 -18 4 -30 15 -27 23 -37 25 -43 8 -3 -10 -9 -10
-28 -1 -13 6 -34 15 -46 18 -13 4 -23 10 -23 16 0 5 -18 12 -40 15 -24 4 -40
12 -40 20 0 19 -43 18 -80 -1 -18 -9 -40 -13 -55 -9 -16 4 -25 2 -25 -6 0 -6
5 -8 10 -5 6 3 10 2 10 -2 0 -5 -9 -14 -20 -21 -16 -10 -20 -10 -20 0 0 7 -7
3 -15 -9 -11 -15 -21 -19 -37 -15 -20 5 -21 3 -10 -10 8 -10 10 -26 6 -44 -7
-28 -7 -29 12 -10 19 20 19 19 22 -17 3 -36 4 -37 25 -22 12 8 30 15 40 15 16
0 16 -3 -5 -32 -24 -34 -61 -66 -66 -58 -9 13 -22 -32 -14 -47 5 -10 6 -45 2
-78 -8 -64 -6 -90 11 -142 12 -37 39 -65 39 -40 0 8 -7 20 -15 27 -16 13 -21
35 -6 25 5 -3 11 7 13 22 2 21 8 27 22 25 12 -2 16 1 10 9 -4 8 -3 10 4 5 7
-4 28 5 47 20 36 27 58 27 35 -1 -7 -8 -8 -15 -2 -15 5 0 15 7 22 15 7 9 15
14 17 11 3 -2 21 7 40 20 43 29 98 31 169 7 64 -21 92 -40 109 -73 12 -23 12
-27 -6 -38 -31 -20 -47 -14 -59 23 -13 39 -62 85 -91 85 -52 0 -109 -53 -109
-102 0 -32 20 -40 80 -33 27 4 46 1 50 -6 4 -6 45 -12 95 -15 52 -2 91 -8 96
-15 4 -6 12 -8 18 -5 6 4 11 0 11 -11 0 -11 -18 -27 -47 -43 -41 -22 -60 -25
-149 -25 -56 0 -100 -3 -97 -7 2 -5 50 -8 106 -8 74 1 107 5 121 15 22 17 76
20 76 5 0 -5 7 -10 16 -10 12 0 14 3 6 13 -14 17 -4 57 14 57 8 0 14 9 14 20
0 11 6 20 13 20 8 0 8 3 1 8 -6 4 -13 14 -17 22 -4 8 -11 22 -16 30 -5 8 -16
31 -25 50 -8 19 -16 29 -16 22 0 -9 -11 -5 -32 11 -18 13 -51 29 -74 35 -22 7
-51 21 -64 32 l-23 20 34 1 c19 0 49 2 68 4 24 2 30 0 20 -7 -9 -6 3 -8 39 -3
28 3 52 2 52 -2 0 -4 21 -7 48 -5 l47 4 0 -33 c0 -29 3 -34 28 -36 15 -1 27 2
27 8 0 5 8 9 19 9 23 0 53 -61 33 -68 -17 -5 -15 -16 9 -43 17 -19 22 -21 29
-9 7 10 10 11 10 3 0 -7 8 -13 18 -14 10 0 12 -3 5 -6 -7 -2 -13 -9 -13 -14 0
-4 7 -6 15 -3 9 4 18 -2 24 -17 5 -13 18 -33 29 -45 11 -11 23 -31 27 -45 4
-13 13 -31 20 -39 19 -22 23 -76 6 -72 -10 2 -11 -7 -6 -40 4 -24 12 -49 17
-55 7 -9 7 -13 -2 -13 -7 0 -10 -7 -6 -17 6 -15 5 -15 -13 1 -23 21 -32 6 -21
-34 4 -14 6 -39 4 -57 -1 -20 2 -31 10 -30 6 1 10 -7 9 -18 -1 -11 0 -14 3 -7
3 6 15 12 27 12 15 0 18 -3 10 -11 -6 -6 -9 -34 -6 -70 3 -39 1 -59 -6 -59 -6
0 -11 -9 -11 -20 0 -13 5 -17 14 -14 23 9 49 -52 42 -96 -5 -29 -2 -39 10 -44
39 -15 42 -8 23 51 -11 31 -19 73 -19 94 0 21 -4 41 -10 44 -5 3 -10 18 -10
33 1 23 2 25 11 10 17 -31 30 -20 14 12 -15 29 -15 29 7 21 13 -4 29 -6 36 -4
6 3 12 0 12 -6 0 -6 -4 -11 -10 -11 -16 0 -12 -20 5 -26 9 -4 27 7 45 26 28
30 30 31 26 9 -3 -13 -5 -35 -5 -49 -1 -18 -4 -21 -10 -11 -5 7 -14 10 -20 7
-15 -10 -14 -66 2 -66 10 0 9 -26 -4 -127 -9 -71 -21 -139 -27 -153 -6 -14
-16 -51 -22 -82 -13 -66 -32 -84 -66 -61 -20 13 -24 12 -42 -8 -21 -22 -42
-19 -42 7 0 8 5 12 10 9 13 -8 13 1 0 26 -6 10 -7 19 -2 19 5 0 9 7 9 15 0 8
-4 12 -9 9 -4 -3 -8 0 -8 5 0 6 5 11 11 11 8 0 8 4 -1 15 -7 8 -11 33 -9 58 2
25 -1 49 -8 55 -8 8 -10 -6 -6 -60 5 -62 3 -70 -11 -65 -21 8 -21 -2 0 -18 21
-14 10 -57 -12 -48 -18 7 -18 -1 0 -36 13 -25 13 -29 -5 -44 -23 -21 -59 -22
-59 -3 0 18 -40 28 -57 14 -11 -9 -11 -15 2 -35 16 -24 19 -123 4 -123 -4 0
-5 -9 -2 -20 3 -11 1 -20 -5 -20 -6 0 -9 -8 -8 -17 2 -10 -1 -20 -5 -23 -5 -4
-10 -25 -12 -48 -3 -23 -9 -48 -16 -55 -6 -8 -8 -17 -5 -20 4 -3 -1 -13 -10
-23 -13 -13 -14 -19 -5 -31 7 -7 18 -12 26 -9 8 3 12 2 8 -3 -3 -5 -2 -11 2
-14 10 -5 -12 1 -33 9 -11 5 -15 2 -13 -12 3 -27 -11 -74 -23 -74 -5 0 -7 -4
-3 -9 3 -6 -3 -25 -13 -43 -13 -22 -16 -40 -11 -53 13 -33 10 -44 -11 -42 -20
1 -29 17 -10 17 6 0 5 8 -2 20 -18 29 -23 25 -24 -18 0 -23 5 -42 15 -49 14
-11 13 -12 -8 -13 -20 0 -23 -4 -19 -30 3 -16 1 -30 -4 -30 -4 0 -8 -7 -8 -15
0 -8 -4 -15 -10 -15 -5 0 -10 9 -10 19 0 12 -6 18 -16 17 -22 -3 -37 -32 -29
-56 4 -11 2 -20 -4 -20 -6 0 -11 -9 -11 -20 0 -11 -5 -20 -11 -20 -6 0 -9 -9
-6 -19 3 -13 -3 -23 -19 -32 -13 -7 -24 -16 -24 -21 0 -5 5 -6 11 -2 7 4 7 -1
-1 -16 -6 -12 -9 -24 -6 -27 3 -3 -2 -12 -10 -21 -13 -12 -13 -17 -2 -24 10
-7 8 -8 -5 -4 -12 4 -20 0 -23 -12 -3 -9 -11 -28 -17 -42 -6 -14 -9 -31 -8
-39 1 -8 -3 -12 -11 -9 -7 3 -19 -1 -26 -8 -7 -8 -8 -14 -2 -14 5 0 10 -4 10
-10 0 -5 -6 -7 -14 -4 -18 7 -32 -16 -16 -26 9 -6 10 -9 0 -15 -7 -4 -17 -1
-22 6 -8 11 -9 10 -4 -3 3 -10 1 -18 -4 -18 -5 0 -7 -6 -5 -12 5 -13 -68 -98
-83 -98 -4 0 -13 -9 -20 -20 -7 -12 -17 -18 -22 -15 -6 3 -10 -1 -10 -9 0 -8
-6 -13 -12 -11 -7 3 -22 -8 -32 -24 -11 -16 -26 -27 -33 -24 -7 3 -13 0 -13
-6 0 -6 -9 -11 -19 -11 -11 0 -23 -5 -27 -11 -3 -6 -15 -9 -25 -6 -11 3 -19 1
-19 -5 0 -5 -12 -8 -28 -7 -15 2 -33 0 -40 -4 -6 -5 -17 -5 -24 -1 -20 13 -58
10 -58 -3 0 -7 -4 -13 -10 -13 -5 0 -10 4 -10 8 0 5 -14 6 -31 4 -22 -3 -30
-1 -25 7 4 6 13 11 20 11 8 0 16 11 18 25 6 29 -15 34 -32 7 -8 -12 -13 -13
-16 -4 -9 20 -34 14 -34 -8 0 -21 -14 -27 -25 -11 -3 5 -17 8 -32 7 -15 -2
-43 6 -62 18 -37 21 -42 23 -90 32 -22 5 -28 10 -24 23 4 9 3 13 -2 9 -8 -7
-35 15 -35 29 0 4 -4 14 -9 22 -8 13 -12 13 -28 0 -16 -13 -17 -12 -5 3 9 11
10 18 2 23 -5 3 -10 0 -10 -7 -1 -17 -60 52 -60 69 0 7 -5 13 -11 13 -5 0 -8
4 -5 9 3 5 -1 12 -10 15 -9 3 -14 13 -10 21 3 8 1 17 -5 20 -5 4 -7 11 -3 16
3 5 0 16 -6 24 -7 8 -9 26 -6 39 3 14 2 28 -4 31 -5 3 -10 11 -10 16 0 6 4 8
9 4 6 -3 9 4 8 15 -1 11 -5 20 -9 20 -4 0 -8 8 -8 18 0 14 -2 15 -10 2 -5 -8
-10 -25 -10 -38 0 -35 -22 -21 -34 22 -6 21 -14 35 -17 31 -4 -3 -10 -2 -14 4
-3 6 -2 11 4 11 7 0 7 8 0 27 -5 14 -7 33 -4 41 9 23 -6 34 -21 15 -10 -13
-13 -14 -14 -4 0 8 -6 22 -14 30 -26 28 -84 216 -72 229 3 3 -1 10 -9 16 -9 6
-17 27 -19 46 -2 19 -11 52 -20 72 -9 21 -16 46 -16 57 0 11 -5 32 -11 48 -6
15 -13 41 -15 57 -2 16 -9 46 -15 68 -5 22 -8 43 -5 46 3 3 2 10 -4 17 -5 6
-10 43 -12 82 -2 39 -6 69 -9 67 -9 -5 -19 22 -19 49 1 21 1 21 16 -3 l15 -25
-5 36 c-2 20 0 42 5 50 7 11 9 11 9 -3 0 -10 4 -18 9 -18 5 0 8 12 6 28 -2 15
-4 37 -4 50 -1 12 -6 22 -13 22 -6 0 -20 8 -30 17 -17 15 -21 15 -29 3 -6 -10
-8 8 -5 53 3 37 2 67 -2 67 -15 0 -30 39 -37 91 -3 30 -13 59 -21 65 -7 6 -10
14 -6 19 4 4 -3 5 -14 1 -18 -5 -21 -3 -19 18 3 26 -21 70 -34 61 -5 -2 -17 2
-27 10 -10 8 -14 15 -8 15 6 0 14 -3 18 -7 13 -13 35 -11 40 4 3 8 1 11 -4 8
-6 -3 -10 0 -10 7 0 7 -5 20 -10 28 -9 13 -11 13 -20 0 -6 -9 -10 -10 -10 -3
0 6 5 15 10 18 16 10 12 28 -4 22 -11 -4 -13 -1 -9 11 4 9 11 21 17 25 6 4 0
7 -14 5 -22 -3 -26 1 -30 37 l-5 40 -9 -30 c-7 -28 -8 -29 -21 -11 -10 13 -11
25 -4 43 6 16 6 30 0 37 -13 16 -24 116 -12 116 5 0 12 11 15 25 4 14 13 25
22 25 12 0 14 7 9 33 -5 25 -2 39 10 50 9 9 14 21 11 26 -3 5 1 11 8 14 20 8
12 -29 -10 -54 -21 -23 -13 -33 18 -26 19 5 23 14 26 53 2 35 10 57 34 87 21
27 34 35 37 26 6 -21 24 -29 38 -17 17 14 -1 38 -31 39 -20 0 -20 0 2 9 12 5
25 16 28 25 4 8 12 15 20 15 7 0 17 6 21 14 4 7 19 19 32 25 26 14 19 27 -19
34 -27 5 47 12 88 8 26 -2 27 2 5 25 -16 16 -16 16 4 10 12 -4 40 -2 61 4 41
10 116 2 110 -13 -2 -5 5 -13 16 -19 24 -14 4 -28 -41 -28 -18 0 -33 -4 -33
-8 0 -5 -22 -19 -49 -32 -36 -16 -59 -21 -82 -16 -30 6 -31 5 -15 -7 18 -13
17 -14 -6 -33 -13 -10 -27 -27 -31 -37 -4 -11 -16 -21 -26 -24 -11 -3 -22 -11
-25 -18 -6 -18 20 -39 39 -31 12 4 14 0 11 -19 -5 -26 16 -36 30 -14 3 6 19 9
34 5 24 -4 27 -2 23 14 -7 27 19 35 73 23 28 -7 47 -7 50 -1 4 6 10 6 17 -1
16 -16 25 -14 32 8 4 15 13 18 40 16 19 -2 40 -7 46 -11 8 -5 9 -3 4 7 -7 11
-6 12 6 3 8 -6 28 -11 44 -12 25 -1 27 0 13 9 -10 5 -18 21 -18 34 0 59 -46
104 -107 106 -27 0 -27 1 -6 11 13 6 41 8 70 3 42 -6 55 -14 101 -63 l52 -57
-27 -22 c-16 -13 -23 -23 -18 -24 6 -1 32 -2 59 -3 52 -1 67 -14 41 -36 -19
-16 -19 -30 0 -30 8 0 15 5 15 11 0 5 5 7 10 4 6 -3 10 -2 10 4 0 5 6 16 13
23 52 53 70 111 45 136 -10 10 -10 15 2 22 13 8 12 11 -3 23 -21 15 -21 74 1
70 6 -2 12 4 12 12 0 8 -4 15 -10 15 -5 0 -10 10 -10 23 0 13 -6 29 -12 36
-10 11 -10 14 0 18 6 3 12 9 12 14 0 4 -7 6 -15 3 -12 -5 -15 3 -15 38 0 36
-6 50 -30 73 -16 16 -40 29 -52 31 -13 1 -40 5 -60 9 -28 6 -38 4 -38 -5 0 -9
-3 -10 -14 -1 -15 13 -93 5 -102 -10 -3 -5 -12 -9 -20 -9 -8 0 -26 -11 -40
-25 -14 -14 -37 -28 -52 -31 -15 -4 -31 -10 -37 -14 -5 -4 -28 -13 -50 -20
-22 -7 -44 -16 -50 -20 -5 -4 -26 -11 -45 -15 -19 -4 -42 -13 -50 -21 -8 -7
-25 -22 -37 -34 -46 -41 -55 -22 -37 83 7 42 18 85 23 95 5 9 8 29 6 45 -2 15
0 27 5 27 4 0 10 11 12 24 4 18 1 22 -12 19 -27 -7 -54 32 -46 68 6 30 -7 67
-28 81 -7 5 -5 8 5 8 9 0 16 7 16 15 0 8 -4 12 -9 9 -4 -3 -8 0 -8 5 0 6 6 11
13 12 9 0 9 2 0 5 -9 4 -7 17 7 49 10 24 16 46 13 49 -5 5 55 88 69 94 5 2 8
10 8 18 0 18 49 74 65 74 6 0 20 17 31 38 11 20 27 37 37 37 9 0 25 10 37 23
11 12 25 23 30 23 6 1 14 2 19 3 4 0 20 15 35 33 19 22 40 34 79 43 28 6 61
15 72 20 11 5 41 16 67 26 26 9 53 23 59 30 13 16 69 33 144 44 28 4 52 8 54
9 3 0 13 -6 23 -16z m1053 -23 c-3 -5 -12 -10 -20 -10 -8 0 -17 5 -20 10 -4 6
5 10 20 10 15 0 24 -4 20 -10z m109 -109 c6 -10 -54 -22 -68 -14 -12 8 15 23
41 23 12 0 24 -4 27 -9z m36 -51 c0 -5 -11 -10 -25 -10 -14 0 -25 5 -25 10 0
6 11 10 25 10 14 0 25 -4 25 -10z m-220 -91 c0 -5 -9 -1 -20 8 -11 10 -20 22
-20 27 0 5 9 1 20 -9 11 -10 20 -22 20 -26z m-1910 -279 c0 -5 -5 -10 -11 -10
-5 0 -7 5 -4 10 3 6 8 10 11 10 2 0 4 -4 4 -10z m2180 -72 c0 -12 -10 -9 -26
6 -20 21 -17 28 6 14 11 -7 20 -16 20 -20z m10 -68 c0 -5 -4 -10 -10 -10 -5 0
-10 5 -10 10 0 6 5 10 10 10 6 0 10 -4 10 -10z m40 -60 c0 -5 -2 -10 -4 -10
-3 0 -8 5 -11 10 -3 6 -1 10 4 10 6 0 11 -4 11 -10z m-1425 -307 l18 -28 -21
19 c-12 11 -22 23 -22 28 0 14 7 9 25 -19z m-695 -67 c0 -2 -7 -17 -15 -32
-16 -30 -19 -25 -9 14 5 18 24 33 24 18z m380 -20 c0 -3 -4 -8 -10 -11 -5 -3
-10 -1 -10 4 0 6 5 11 10 11 6 0 10 -2 10 -4z m-79 -151 c-28 -59 -54 -69 -59
-23 -3 21 4 32 35 52 21 14 40 26 44 26 3 0 -6 -25 -20 -55z m1704 35 c3 -5 1
-10 -4 -10 -6 0 -11 5 -11 10 0 6 2 10 4 10 3 0 8 -4 11 -10z m-1365 -39 c39
-39 50 -61 30 -61 -5 0 -10 6 -10 13 0 8 -10 19 -22 26 -27 15 -64 61 -48 61
6 0 29 -18 50 -39z m-260 -1 c0 -5 -4 -10 -10 -10 -5 0 -10 5 -10 10 0 6 5 10
10 10 6 0 10 -4 10 -10z m-460 -50 c0 -3 -9 -6 -21 -7 -15 -1 -19 2 -15 13 3
9 6 23 6 32 1 12 5 10 15 -8 8 -14 14 -27 15 -30z m1540 40 c0 -5 -4 -10 -10
-10 -5 0 -10 5 -10 10 0 6 5 10 10 10 6 0 10 -4 10 -10z m75 0 c3 -5 1 -10 -4
-10 -6 0 -11 5 -11 10 0 6 2 10 4 10 3 0 8 -4 11 -10z m-1123 -25 c0 -5 -5
-11 -11 -13 -6 -2 -11 4 -11 13 0 9 5 15 11 13 6 -2 11 -8 11 -13z m1080 -10
c0 -5 -5 -11 -11 -13 -6 -2 -11 4 -11 13 0 9 5 15 11 13 6 -2 11 -8 11 -13z
m-792 -25 c0 -5 -5 -10 -11 -10 -5 0 -7 5 -4 10 3 6 8 10 11 10 2 0 4 -4 4
-10z m-910 -284 c0 -8 -4 -18 -10 -21 -5 -3 -10 3 -10 14 0 12 5 21 10 21 6 0
10 -6 10 -14z m2568 -86 c3 -7 0 -10 -5 -7 -5 4 -26 -3 -47 -14 -44 -23 -60
-18 -44 16 16 35 85 39 96 5z m22 -44 c0 -3 -4 -8 -10 -11 -5 -3 -10 -1 -10 4
0 6 5 11 10 11 6 0 10 -2 10 -4z m-2554 -34 c1 -7 3 -14 4 -17 1 -3 3 -9 4
-14 0 -5 4 -13 9 -17 10 -11 9 -26 -2 -19 -6 3 -15 -4 -21 -16 -10 -19 -9 -20
8 -15 11 4 23 2 27 -4 4 -6 3 -10 -2 -9 -26 6 -43 -15 -43 -55 -1 -35 -2 -38
-12 -22 -7 12 -8 40 -3 80 5 34 8 76 8 94 0 30 20 42 23 14z m2394 -6 c0 -3
-4 -8 -10 -11 -5 -3 -10 -1 -10 4 0 6 5 11 10 11 6 0 10 -2 10 -4z m-2583 -66
c3 -8 5 -27 4 -42 -3 -35 16 -37 25 -2 8 31 38 29 42 -4 2 -12 8 -22 13 -22 6
0 8 -8 4 -19 -3 -10 -1 -29 4 -42 6 -15 10 -18 10 -8 1 9 8 22 16 29 13 11 15
8 15 -15 0 -20 4 -26 15 -22 8 4 17 2 19 -2 7 -11 8 -59 3 -93 -2 -15 -1 -25
3 -23 5 3 10 -2 14 -10 3 -8 1 -15 -4 -15 -6 0 -10 -11 -10 -24 0 -14 -4 -28
-10 -31 -5 -3 -10 -11 -10 -16 0 -6 3 -8 8 -6 15 10 27 -20 29 -73 1 -30 5
-72 9 -92 4 -27 3 -38 -6 -38 -7 0 -10 6 -7 13 10 25 -8 40 -32 28 -28 -15
-98 3 -105 27 -6 21 -21 194 -18 206 2 4 -3 15 -10 23 -7 8 -16 40 -21 72 -24
166 -29 221 -22 237 8 18 8 18 12 -1 2 -11 7 -27 10 -35z m2649 28 c9 -15 -27
-41 -39 -29 -13 13 -1 41 17 41 8 0 18 -5 22 -12z m44 -27 c0 -13 -29 -35 -37
-28 -7 8 15 37 28 37 5 0 9 -4 9 -9z m-2366 -226 c-4 -8 -10 -12 -15 -9 -11 6
-2 24 11 24 5 0 7 -7 4 -15z m46 -175 c0 -5 -5 -10 -11 -10 -5 0 -7 5 -4 10 3
6 8 10 11 10 2 0 4 -4 4 -10z m-54 -136 c-19 -19 -21 -2 -3 27 10 18 9 23 -2
27 -11 4 -11 6 0 13 21 13 25 -47 5 -67z m114 51 c-7 -8 -17 -15 -23 -15 -6 0
-2 7 9 15 25 19 30 19 14 0z m-47 -62 c3 -34 1 -41 -9 -32 -9 7 -14 3 -19 -21
-4 -16 -10 -30 -15 -30 -5 0 -11 -8 -13 -17 -4 -14 -5 -12 -6 5 0 12 -5 22
-11 22 -5 0 -10 5 -10 11 0 8 4 8 14 0 18 -15 30 1 21 30 -4 13 0 28 12 41 10
12 12 18 6 14 -16 -9 -17 6 -1 22 17 17 26 4 31 -45z m66 25 c0 -7 -4 -22 -8
-33 -8 -19 -8 -19 -15 2 -8 24 -1 43 15 43 5 0 9 -6 8 -12z m-194 -8 c-3 -5
-11 -10 -16 -10 -6 0 -7 5 -4 10 3 6 11 10 16 10 6 0 7 -4 4 -10z m-15 -40 c0
-5 -2 -10 -4 -10 -3 0 -8 5 -11 10 -3 6 -1 10 4 10 6 0 11 -4 11 -10z m75 0
c3 -5 1 -10 -4 -10 -6 0 -11 5 -11 10 0 6 2 10 4 10 3 0 8 -4 11 -10z m84 -57
c1 -24 4 -66 10 -142 1 -7 7 -11 14 -8 15 6 43 -75 32 -92 -3 -6 -3 -17 2 -23
9 -16 44 -135 47 -163 1 -11 7 -29 13 -40 6 -11 14 -35 18 -53 l7 -34 -31 17
c-32 16 -47 63 -17 52 10 -4 13 -1 9 9 -3 7 -13 14 -22 14 -9 0 -23 5 -31 11
-12 9 -11 10 8 6 l22 -5 -21 30 c-12 16 -30 35 -40 41 -11 7 -19 23 -19 39 0
15 -4 30 -10 33 -5 3 -10 19 -10 35 0 16 -4 31 -9 34 -14 9 -19 54 -8 65 8 8
5 11 -8 12 -11 0 -14 3 -7 6 6 2 12 9 12 15 0 6 -6 8 -14 5 -8 -3 -16 2 -19
14 -9 35 16 15 57 -44 21 -32 41 -55 44 -52 3 3 -2 13 -10 22 -13 16 -30 46
-69 124 -11 24 0 61 25 81 11 10 21 18 22 18 1 0 2 -12 3 -27z m2080 -22 c-7
-23 -16 -41 -21 -41 -5 0 -6 5 -3 10 3 6 1 10 -4 10 -6 0 -11 -7 -11 -17 0
-23 -13 -7 -15 18 -1 15 3 19 17 16 10 -3 16 -1 12 4 -3 5 -1 9 5 9 5 0 13 9
16 21 4 11 9 18 12 16 2 -3 -1 -23 -8 -46z m-139 22 c0 -15 2 -16 10 -3 9 13
14 7 11 -12 0 -4 6 -5 14 -2 8 4 15 3 15 -1 0 -14 -21 -45 -32 -45 -7 0 -6 5
2 15 8 9 8 15 2 15 -13 0 -42 28 -42 41 0 5 5 9 10 9 6 0 10 -8 10 -17z m115
-94 c-4 -12 -8 -29 -10 -38 -1 -9 -5 -15 -8 -13 -4 1 -12 2 -19 2 -6 0 -3 6 7
14 11 8 16 20 12 29 -5 13 2 21 21 26 2 1 0 -9 -3 -20z m-2025 -29 c0 -5 -2
-10 -4 -10 -3 0 -8 5 -11 10 -3 6 -1 10 4 10 6 0 11 -4 11 -10z m1885 -238
c-8 -8 -25 10 -25 26 0 13 2 13 14 -4 8 -10 13 -21 11 -22z m2 -54 c-3 -8 -6
-5 -6 6 -1 11 2 17 5 13 3 -3 4 -12 1 -19z m-17 -32 c0 -8 -7 -16 -15 -20 -9
-3 -12 -12 -8 -23 4 -13 3 -15 -6 -7 -8 7 -8 17 1 37 14 29 28 36 28 13z m-36
-96 c-6 -5 -24 21 -24 34 0 6 6 1 14 -10 8 -10 12 -21 10 -24z m-1714 -30 c0
-5 -4 -10 -10 -10 -5 0 -10 5 -10 10 0 6 5 10 10 10 6 0 10 -4 10 -10z m1710
-73 c0 -7 -7 -21 -16 -32 -15 -20 -15 -20 -12 0 2 11 7 26 11 32 6 9 3 11 -10
7 -15 -5 -15 -4 -3 4 16 12 30 7 30 -11z m-142 -157 c7 -11 11 -20 9 -20 -2 0
-12 9 -22 20 -10 11 -14 20 -9 20 5 0 15 -9 22 -20z m-13 -28 c-3 -3 -11 0
-18 7 -9 10 -8 11 6 5 10 -3 15 -9 12 -12z m-441 -667 c-14 -22 -34 -34 -34
-20 0 5 42 45 47 45 2 0 -4 -11 -13 -25z"/>
<path d="M2191 4011 c-9 -6 -10 -11 -2 -15 6 -4 11 -25 11 -47 0 -38 2 -40 27
-37 23 3 29 10 39 50 6 26 9 49 6 52 -8 9 -65 7 -81 -3z"/>
<path d="M2287 3948 c-24 -19 -39 -94 -21 -109 21 -17 41 -4 49 33 4 18 12 39
17 46 7 8 7 17 -2 27 -15 18 -21 19 -43 3z"/>
<path d="M1760 3744 c0 -8 5 -12 10 -9 6 3 10 10 10 16 0 5 -4 9 -10 9 -5 0
-10 -7 -10 -16z"/>
<path d="M1500 3725 c-7 -9 -8 -15 -2 -15 5 0 12 7 16 15 3 8 4 15 2 15 -2 0
-9 -7 -16 -15z"/>
<path d="M3240 3693 c8 -4 22 -16 32 -27 18 -21 18 -21 7 7 -8 18 -19 27 -33
26 -14 0 -16 -2 -6 -6z"/>
<path d="M1726 3635 c-4 -11 1 -15 19 -15 16 0 25 6 25 15 0 8 -9 15 -19 15
-10 0 -21 -7 -25 -15z"/>
<path d="M2192 3610 c0 -14 2 -19 5 -12 2 6 2 18 0 25 -3 6 -5 1 -5 -13z"/>
<path d="M2550 3611 c0 -5 7 -15 17 -22 15 -13 15 -12 4 9 -12 23 -21 28 -21
13z"/>
<path d="M2681 3527 c-6 -6 -11 -22 -11 -35 0 -15 -4 -21 -12 -17 -7 4 -2 -2
11 -13 17 -13 20 -21 12 -27 -9 -5 -7 -11 7 -21 11 -7 23 -30 27 -51 9 -49 22
-73 40 -73 22 0 23 10 10 87 -14 82 -63 171 -84 150z"/>
<path d="M2067 3516 c-3 -8 -3 -17 0 -20 9 -9 34 15 27 25 -8 13 -21 11 -27
-5z"/>
<path d="M2360 3470 c0 -5 5 -10 10 -10 6 0 10 5 10 10 0 6 -4 10 -10 10 -5 0
-10 -4 -10 -10z"/>
<path d="M1745 3460 c-3 -5 1 -10 9 -10 8 0 18 5 21 10 3 6 -1 10 -9 10 -8 0
-18 -4 -21 -10z"/>
<path d="M3205 3450 c3 -5 8 -10 11 -10 2 0 4 5 4 10 0 6 -5 10 -11 10 -5 0
-7 -4 -4 -10z"/>
<path d="M2365 3430 c-3 -5 -1 -10 4 -10 6 0 11 5 11 10 0 6 -2 10 -4 10 -3 0
-8 -4 -11 -10z"/>
<path d="M1825 3330 c-3 -5 -1 -10 4 -10 6 0 11 5 11 10 0 6 -2 10 -4 10 -3 0
-8 -4 -11 -10z"/>
<path d="M3030 3321 c0 -5 5 -13 10 -16 6 -3 10 -2 10 4 0 5 -4 13 -10 16 -5
3 -10 2 -10 -4z"/>
<path d="M2625 3310 c-3 -5 -1 -10 4 -10 6 0 11 5 11 10 0 6 -2 10 -4 10 -3 0
-8 -4 -11 -10z"/>
<path d="M2177 3288 c-10 -36 -8 -48 8 -48 16 0 20 36 6 58 -6 10 -10 8 -14
-10z"/>
<path d="M1810 3261 c0 -6 5 -13 10 -16 6 -3 10 1 10 9 0 9 -4 16 -10 16 -5 0
-10 -4 -10 -9z"/>
<path d="M3032 3254 c1 -9 9 -19 16 -22 9 -3 13 2 10 14 -1 9 -9 19 -16 22 -9
3 -13 -2 -10 -14z"/>
<path d="M3291 3251 c-8 -5 -9 -11 -3 -15 5 -3 12 1 16 9 6 17 6 18 -13 6z"/>
<path d="M1960 3180 c0 -5 5 -10 11 -10 5 0 7 5 4 10 -3 6 -8 10 -11 10 -2 0
-4 -4 -4 -10z"/>
<path d="M2491 3154 c0 -11 3 -14 6 -6 3 7 2 16 -1 19 -3 4 -6 -2 -5 -13z"/>
<path d="M3023 3136 c-13 -15 -7 -26 14 -26 7 0 13 9 13 20 0 23 -10 25 -27 6z"/>
<path d="M2280 2986 c0 -7 9 -24 20 -37 l19 -24 1 27 c0 17 -7 31 -20 38 -16
8 -20 8 -20 -4z"/>
<path d="M2427 2892 c-24 -26 -21 -33 8 -20 14 6 25 17 25 25 0 18 -14 16 -33
-5z"/>
<path d="M2216 2873 c-8 -21 8 -38 28 -30 22 8 20 24 -3 36 -15 8 -20 7 -25
-6z"/>
<path d="M2940 2879 c0 -5 5 -7 10 -4 6 3 10 8 10 11 0 2 -4 4 -10 4 -5 0 -10
-5 -10 -11z"/>
<path d="M3105 2850 c4 -6 11 -8 16 -5 14 9 11 15 -7 15 -8 0 -12 -5 -9 -10z"/>
<path d="M2170 2829 c0 -6 -9 -24 -21 -40 -11 -16 -19 -35 -16 -42 2 -6 -1
-25 -8 -42 -6 -16 -10 -36 -8 -42 3 -7 0 -13 -7 -13 -6 0 -8 -4 -5 -10 3 -5
-3 -15 -15 -22 -11 -7 -20 -16 -20 -21 0 -4 5 -5 10 -2 16 10 11 -17 -5 -29
-12 -9 -10 -11 15 -12 28 -1 40 9 23 19 -5 2 -2 2 5 0 9 -2 11 3 8 15 -4 13
-1 19 9 19 18 0 19 -11 3 -40 -7 -12 -13 -26 -14 -32 -1 -5 -9 -30 -18 -54 -9
-24 -16 -56 -16 -72 0 -30 -14 -44 -44 -44 -11 0 -21 -6 -24 -14 -3 -10 1 -12
14 -8 11 4 0 -10 -22 -31 -23 -20 -44 -48 -47 -62 -8 -34 2 -70 19 -70 17 0
18 -12 2 -28 -10 -10 -10 -15 2 -22 8 -5 17 -7 20 -5 3 2 37 -7 75 -20 45 -15
72 -30 76 -42 3 -10 9 -28 14 -40 4 -13 15 -23 24 -23 10 0 26 -6 37 -14 11
-9 30 -13 44 -10 32 7 110 46 111 56 1 5 3 13 4 18 1 6 3 15 4 20 0 6 10 10
20 10 10 0 21 6 24 14 3 7 18 16 34 18 15 3 37 8 48 12 18 7 18 6 -2 -12 -13
-11 -23 -30 -23 -41 0 -17 -6 -21 -31 -21 -19 0 -28 -4 -24 -11 4 -6 -1 -16
-11 -24 -11 -7 -15 -17 -11 -22 5 -4 18 4 29 20 11 15 28 27 39 27 10 0 19 3
19 8 0 4 18 18 39 31 38 23 76 76 47 65 -7 -3 -21 6 -31 19 -15 21 -24 24 -62
19 -39 -4 -45 -2 -50 17 -3 11 -11 21 -18 21 -17 0 -47 -47 -43 -68 4 -25 -53
-100 -81 -107 -13 -3 -33 0 -46 9 -13 9 -26 11 -31 6 -24 -24 -75 58 -67 106
4 25 1 40 -12 54 -19 21 -45 27 -45 10 0 -5 -7 -10 -16 -10 -8 0 -13 -4 -10
-9 8 -13 -51 -8 -65 6 -17 17 20 73 53 80 20 4 37 20 58 54 16 27 30 52 30 55
0 9 33 39 44 39 29 2 50 22 72 70 14 29 24 56 23 61 -4 24 3 46 21 64 16 16
17 20 5 20 -8 0 -15 -4 -15 -10 0 -5 -4 -10 -10 -10 -5 0 -6 7 -3 17 5 12 3
14 -7 8 -10 -6 -12 -4 -7 8 3 9 2 19 -3 22 -6 4 -10 -1 -10 -10 0 -8 -7 -42
-17 -75 -13 -49 -20 -60 -37 -60 -17 0 -18 -2 -6 -10 13 -9 12 -12 -4 -25 -16
-12 -22 -12 -28 -2 -6 9 -8 9 -8 0 0 -7 -5 -13 -11 -13 -12 0 -3 51 11 60 4 3
11 21 15 40 4 19 19 48 34 63 20 22 22 27 7 21 -16 -6 -18 -4 -14 17 3 13 9
33 13 44 5 14 0 12 -15 -7 -12 -16 -26 -28 -31 -28 -14 0 -7 42 9 58 14 16 16
42 2 42 -5 0 -7 7 -4 15 4 8 1 15 -5 15 -6 0 -11 -5 -11 -11z m17 -147 c-10
-10 -17 -24 -17 -30 0 -7 -5 -12 -11 -12 -6 0 -8 7 -5 16 3 9 6 22 6 30 0 8
10 14 22 14 20 0 20 -1 5 -18z"/>
<path d="M2300 2766 c0 -10 9 -16 21 -16 24 0 21 23 -4 28 -10 2 -17 -3 -17
-12z"/>
<path d="M2597 2733 c-20 -14 -37 -30 -37 -35 0 -5 10 -2 22 6 29 21 56 22 36
3 -7 -8 -20 -17 -28 -20 -11 -5 -9 -6 5 -5 11 0 28 -2 38 -7 9 -4 25 -4 35 0
9 5 28 7 42 6 14 -2 22 0 19 4 -4 3 -26 7 -50 8 -44 2 -57 17 -37 44 18 23
-10 21 -45 -4z"/>
<path d="M3275 2640 c-3 -5 -1 -10 4 -10 6 0 11 5 11 10 0 6 -2 10 -4 10 -3 0
-8 -4 -11 -10z"/>
<path d="M1955 2630 c-3 -5 -2 -10 4 -10 5 0 13 5 16 10 3 6 2 10 -4 10 -5 0
-13 -4 -16 -10z"/>
<path d="M1278 2613 c7 -3 16 -2 19 1 4 3 -2 6 -13 5 -11 0 -14 -3 -6 -6z"/>
<path d="M1565 2610 c4 -6 11 -8 16 -5 14 9 11 15 -7 15 -8 0 -12 -5 -9 -10z"/>
<path d="M2760 2596 c0 -12 -8 -14 -36 -10 -20 2 -41 7 -47 11 -6 3 -7 1 -3
-5 12 -20 76 -26 93 -9 10 10 11 17 4 21 -6 4 -11 0 -11 -8z"/>
<path d="M2016 2585 c-9 -9 -13 -21 -10 -27 3 -5 13 0 21 12 19 26 11 37 -11
15z"/>
<path d="M1745 2580 c-3 -5 -1 -10 4 -10 6 0 11 5 11 10 0 6 -2 10 -4 10 -3 0
-8 -4 -11 -10z"/>
<path d="M1939 2573 c-13 -15 -12 -15 9 -4 23 12 28 21 13 21 -5 0 -15 -7 -22
-17z"/>
<path d="M1610 2556 c0 -8 14 -16 38 -18 41 -6 55 -2 26 7 -10 4 -27 11 -36
16 -24 12 -28 11 -28 -5z"/>
<path d="M2580 2561 c0 -13 29 -35 37 -28 7 8 -15 37 -28 37 -5 0 -9 -4 -9 -9z"/>
<path d="M1940 2541 c0 -13 23 -28 43 -28 10 0 17 8 17 19 0 16 -3 17 -20 8
-14 -7 -20 -7 -20 0 0 5 -4 10 -10 10 -5 0 -10 -4 -10 -9z"/>
<path d="M1318 2515 c-5 -25 -4 -25 10 -11 12 11 13 19 5 27 -7 7 -12 3 -15
-16z"/>
<path d="M1855 2520 c-3 -5 -2 -10 4 -10 5 0 13 5 16 10 3 6 2 10 -4 10 -5 0
-13 -4 -16 -10z"/>
<path d="M1910 2505 c0 -8 5 -15 10 -15 6 0 10 7 10 15 0 8 -4 15 -10 15 -5 0
-10 -7 -10 -15z"/>
<path d="M3018 2515 c-10 -10 3 -43 19 -50 23 -8 31 5 12 18 -9 7 -18 18 -20
25 -2 7 -7 10 -11 7z"/>
<path d="M3065 2510 c-3 -6 1 -7 9 -4 18 7 21 14 7 14 -6 0 -13 -4 -16 -10z"/>
<path d="M3270 2510 c0 -5 5 -10 10 -10 6 0 10 5 10 10 0 6 -4 10 -10 10 -5 0
-10 -4 -10 -10z"/>
<path d="M1911 2454 c-15 -35 -8 -40 23 -17 24 17 38 41 16 28 -5 -3 -10 -1
-10 4 0 20 -17 11 -29 -15z"/>
<path d="M1176 2454 c-4 -9 -4 -19 -1 -22 2 -3 7 3 11 12 4 9 4 19 1 22 -2 3
-7 -3 -11 -12z"/>
<path d="M3425 2440 c3 -5 8 -10 11 -10 2 0 4 5 4 10 0 6 -5 10 -11 10 -5 0
-7 -4 -4 -10z"/>
<path d="M1260 2430 c0 -5 5 -10 10 -10 6 0 10 5 10 10 0 6 -4 10 -10 10 -5 0
-10 -4 -10 -10z"/>
<path d="M3260 2430 c0 -5 5 -10 11 -10 5 0 7 5 4 10 -3 6 -8 10 -11 10 -2 0
-4 -4 -4 -10z"/>
<path d="M3160 2420 c0 -5 5 -10 11 -10 5 0 7 5 4 10 -3 6 -8 10 -11 10 -2 0
-4 -4 -4 -10z"/>
<path d="M3290 2405 c0 -8 2 -15 4 -15 2 0 6 7 10 15 3 8 1 15 -4 15 -6 0 -10
-7 -10 -15z"/>
<path d="M3320 2408 c0 -8 7 -23 15 -34 14 -19 14 -19 15 2 0 12 -7 27 -15 34
-12 10 -15 10 -15 -2z"/>
<path d="M1890 2391 c-6 -12 -7 -21 -1 -21 10 0 24 30 17 37 -2 3 -9 -5 -16
-16z"/>
<path d="M2640 2406 c0 -2 7 -9 15 -16 12 -10 15 -10 15 4 0 9 -7 16 -15 16
-8 0 -15 -2 -15 -4z"/>
<path d="M3210 2390 c0 -5 5 -10 10 -10 6 0 10 5 10 10 0 6 -4 10 -10 10 -5 0
-10 -4 -10 -10z"/>
<path d="M1750 2349 c0 -5 5 -7 10 -4 6 3 10 8 10 11 0 2 -4 4 -10 4 -5 0 -10
-5 -10 -11z"/>
<path d="M3210 2327 c4 -17 11 -41 16 -51 5 -14 4 -17 -4 -12 -17 10 -15 -36
3 -70 8 -16 15 -49 15 -74 0 -25 7 -66 14 -92 12 -38 22 -149 16 -168 -9 -25
-13 -180 -5 -188 9 -9 27 15 30 40 1 13 3 30 4 38 1 13 2 13 11 0 12 -19 24
-6 15 17 -11 27 -13 83 -3 83 4 0 8 -11 8 -24 0 -29 15 -43 23 -22 3 8 1 16
-5 18 -5 2 -12 26 -14 53 -3 37 -2 45 5 30 8 -17 10 -17 10 -3 1 9 -3 20 -9
23 -5 3 -10 11 -10 16 0 6 5 7 10 4 6 -3 10 -2 10 3 0 10 -29 26 -42 24 -5 -1
-8 7 -8 17 0 11 -3 26 -6 35 -3 9 -1 16 5 16 6 0 11 -11 11 -25 0 -14 8 -29
19 -35 27 -14 32 -13 29 8 -2 9 2 16 8 15 7 -1 10 6 7 17 -3 12 -14 20 -27 20
-17 0 -19 2 -6 11 11 8 12 12 2 16 -6 2 -10 9 -7 13 9 15 -18 100 -32 100 -7
0 -12 -3 -12 -7 1 -5 0 -15 -1 -23 -4 -26 -18 33 -19 78 -1 26 -10 57 -26 81
-32 52 -45 59 -35 18z m87 -239 c-3 -8 -6 -5 -6 6 -1 11 2 17 5 13 3 -3 4 -12
1 -19z"/>
<path d="M1505 2330 c-3 -5 -2 -10 4 -10 5 0 13 5 16 10 3 6 2 10 -4 10 -5 0
-13 -4 -16 -10z"/>
<path d="M1968 2322 c-7 -10 -21 -21 -30 -25 -10 -3 -18 -15 -18 -25 0 -10 -5
-23 -12 -30 -16 -16 3 -35 26 -26 12 5 14 9 6 14 -14 9 13 68 35 77 8 3 12 10
8 16 -4 6 0 8 10 4 10 -3 17 -2 17 3 0 17 -28 11 -42 -8z"/>
<path d="M2470 2320 c0 -5 5 -10 10 -10 6 0 10 5 10 10 0 6 -4 10 -10 10 -5 0
-10 -4 -10 -10z"/>
<path d="M3371 2263 c-1 -13 -9 -24 -22 -28 -25 -8 -19 -31 7 -27 16 2 17 1 4
-8 -11 -9 -12 -13 -2 -17 17 -7 5 -23 -13 -16 -19 7 -19 -7 0 -34 8 -12 12
-29 9 -38 -5 -12 -2 -16 12 -13 11 2 18 -2 16 -10 -1 -7 9 -18 23 -24 15 -7
25 -20 25 -32 1 -19 2 -19 15 4 12 22 12 26 -2 38 -9 6 -14 12 -11 12 4 0 2
15 -4 33 -5 17 -10 39 -11 47 0 8 -6 21 -14 28 -7 7 -13 25 -14 40 0 15 -4 36
-9 47 -8 19 -9 19 -9 -2z m29 -123 c0 -5 -4 -10 -10 -10 -5 0 -10 5 -10 10 0
6 5 10 10 10 6 0 10 -4 10 -10z m-5 -38 c-3 -3 -11 0 -18 7 -9 10 -8 11 6 5
10 -3 15 -9 12 -12z"/>
<path d="M3315 2260 c-3 -5 -1 -10 4 -10 6 0 11 5 11 10 0 6 -2 10 -4 10 -3 0
-8 -4 -11 -10z"/>
<path d="M1551 2247 c-15 -19 -2 -29 15 -12 8 7 14 16 14 19 0 11 -17 6 -29
-7z"/>
<path d="M2540 2250 c0 -5 5 -10 10 -10 6 0 10 5 10 10 0 6 -4 10 -10 10 -5 0
-10 -4 -10 -10z"/>
<path d="M1835 2240 c-3 -5 -1 -10 4 -10 6 0 11 5 11 10 0 6 -2 10 -4 10 -3 0
-8 -4 -11 -10z"/>
<path d="M1902 2180 c-19 -21 -19 -23 -4 -42 54 -67 69 -79 105 -85 32 -5 37
-3 37 15 0 21 -25 36 -42 26 -5 -3 -12 3 -15 15 -3 12 -10 21 -15 21 -5 0 -17
7 -25 16 -12 12 -13 18 -4 23 9 6 8 11 -3 20 -11 10 -18 8 -34 -9z"/>
<path d="M1430 2181 c0 -6 4 -13 10 -16 6 -3 7 1 4 9 -7 18 -14 21 -14 7z"/>
<path d="M1330 2161 c0 -17 18 -21 24 -6 3 9 0 15 -9 15 -8 0 -15 -4 -15 -9z"/>
<path d="M2170 2140 c0 -5 7 -10 16 -10 8 0 12 5 9 10 -3 6 -10 10 -16 10 -5
0 -9 -4 -9 -10z"/>
<path d="M2365 2140 c-3 -5 -1 -10 4 -10 6 0 11 5 11 10 0 6 -2 10 -4 10 -3 0
-8 -4 -11 -10z"/>
<path d="M1757 2101 c-10 -4 -18 -9 -17 -11 1 -3 -4 -18 -10 -34 -15 -40 -7
-42 23 -6 32 37 57 40 57 5 0 -14 5 -25 10 -25 6 0 10 -6 10 -14 0 -7 10 -26
22 -41 l22 -28 -26 6 c-15 4 -30 3 -33 -3 -3 -5 -2 -10 3 -10 13 0 8 -73 -6
-78 -7 -2 -10 -8 -7 -13 4 -5 0 -6 -8 -3 -8 3 -20 -2 -27 -11 -10 -12 -10 -15
1 -15 9 -1 7 -6 -6 -16 -11 -8 -20 -20 -21 -27 -1 -25 -16 -57 -26 -57 -6 0
-9 -3 -5 -6 7 -8 -17 -34 -32 -34 -6 0 -11 -8 -10 -17 0 -11 3 -13 6 -5 2 6
11 12 19 12 8 0 14 4 14 9 0 16 25 19 39 4 11 -12 10 -14 -5 -11 -20 3 -22
-10 -9 -47 4 -11 3 -16 -2 -10 -4 6 -13 11 -20 12 -16 3 -6 -26 18 -53 18 -20
18 -21 -12 -79 -23 -44 -28 -65 -23 -88 6 -29 34 -69 34 -50 1 4 10 -14 21
-42 12 -27 25 -58 30 -67 5 -10 9 -25 9 -33 0 -8 5 -14 11 -12 6 1 18 -9 27
-23 16 -24 16 -24 0 -11 -16 12 -17 11 -7 -20 6 -19 17 -46 25 -61 22 -40 3
-34 -24 7 -22 34 -50 49 -39 21 8 -21 -4 -28 -22 -14 -13 11 9 -22 29 -42 16
-16 29 -51 24 -65 -5 -11 0 -18 15 -22 12 -3 21 -10 20 -17 -4 -33 3 -56 16
-56 8 0 15 -9 15 -20 0 -13 5 -18 15 -14 12 5 14 -1 11 -29 -4 -28 -2 -34 12
-33 9 0 16 -4 15 -11 -2 -7 4 -10 12 -7 8 4 15 13 15 21 0 13 3 13 16 2 10 -8
12 -15 5 -17 -6 -2 -11 -8 -11 -13 0 -13 43 -4 48 10 5 16 -29 49 -46 43 -17
-5 -8 58 9 69 20 13 29 11 29 -5 0 -8 9 -21 20 -29 11 -8 19 -20 17 -28 -2 -8
-2 -11 0 -6 3 4 9 7 15 7 6 0 17 8 25 18 14 16 14 16 9 -2 -6 -18 -2 -19 88
-12 72 5 95 3 99 -6 3 -8 6 -5 6 6 1 18 2 18 19 3 10 -10 21 -15 24 -11 3 3
32 7 64 9 31 2 73 12 93 22 20 9 44 18 54 20 26 4 63 34 82 65 8 15 21 33 28
40 26 26 87 123 87 138 0 8 18 42 40 75 22 33 40 66 40 72 0 22 43 102 52 97
4 -3 8 5 9 18 0 13 2 33 3 45 1 12 -4 25 -11 28 -8 2 -11 9 -8 15 3 6 -1 13
-9 16 -9 3 -16 12 -16 20 0 19 -41 83 -75 117 -29 28 -85 59 -114 63 -9 1 -63
11 -121 22 -58 11 -108 18 -113 15 -22 -14 -204 -18 -332 -8 -29 2 -86 -5
-134 -16 -83 -20 -93 -20 -97 4 -1 7 -5 26 -10 42 -6 26 -5 28 8 17 13 -10 16
-9 21 10 4 12 2 25 -4 29 -6 3 -1 9 10 12 14 3 21 0 21 -9 0 -31 38 5 42 40 2
19 0 32 -4 30 -4 -3 -8 -13 -9 -22 0 -12 -3 -11 -9 6 -5 12 -14 22 -20 22 -14
0 -2 42 14 52 8 5 7 8 -2 8 -7 0 -10 5 -7 10 4 6 11 8 16 5 5 -4 9 -2 9 3 0
14 -34 25 -38 13 -2 -6 -8 -11 -13 -11 -6 0 -8 4 -4 9 3 5 -4 13 -15 16 -17 5
-20 12 -15 35 5 21 1 34 -15 50 -11 11 -25 18 -30 15 -6 -4 -10 -1 -10 4 0 12
-7 13 -33 2z m123 -201 c0 -5 -5 -10 -11 -10 -5 0 -7 5 -4 10 3 6 8 10 11 10
2 0 4 -4 4 -10z m-73 -119 c10 -16 8 -18 -18 -19 -17 0 -29 4 -29 12 0 30 30
35 47 7z m29 -68 c-10 -10 -19 5 -10 18 6 11 8 11 12 0 2 -7 1 -15 -2 -18z
m-32 -29 c3 -8 2 -12 -4 -9 -6 3 -10 10 -10 16 0 14 7 11 14 -7z m290 -9 c16
-12 22 -12 42 2 18 11 37 14 72 9 56 -8 54 -8 119 0 29 4 60 3 70 -1 29 -13
43 -14 49 -4 12 19 53 9 67 -17 12 -23 15 -24 26 -10 8 9 26 16 42 16 26 0 27
-2 22 -35 -5 -34 8 -48 22 -25 11 18 24 11 31 -15 6 -25 7 -25 26 -8 19 17 20
17 34 -2 9 -13 12 -31 8 -55 -8 -47 -16 -53 -48 -40 -19 7 -32 6 -46 -2 -15
-10 -22 -9 -38 6 -13 11 -22 14 -27 7 -9 -15 -40 -14 -54 3 -15 18 -88 27
-115 14 -15 -6 -65 -6 -152 1 -170 14 -207 13 -217 -5 -4 -7 -17 -14 -27 -14
-10 0 -31 -5 -45 -12 -20 -9 -31 -9 -45 0 -12 7 -21 8 -25 2 -10 -17 -34 -11
-46 11 -25 47 14 118 39 72 8 -14 10 -14 17 6 5 16 13 21 26 18 14 -4 19 0 19
16 0 40 15 52 45 39 34 -16 35 -15 35 7 0 31 42 40 74 16z m-324 -65 c0 -11
-4 -20 -9 -20 -7 0 -8 17 -2 38 4 10 11 -2 11 -18z m128 -369 c3 -8 -1 -12 -9
-9 -7 2 -15 10 -17 17 -3 8 1 12 9 9 7 -2 15 -10 17 -17z m57 8 c10 -14 1 -21
-19 -13 -9 3 -13 10 -10 15 7 12 21 11 29 -2z m18 -41 c10 -7 19 -23 21 -35 3
-12 16 -42 30 -68 14 -25 26 -57 26 -70 0 -14 5 -25 10 -25 6 0 10 -16 10 -35
0 -25 5 -37 18 -41 9 -3 30 -12 45 -20 48 -24 77 -13 42 16 -8 7 -13 16 -10
20 3 4 -2 11 -11 14 -13 5 -15 16 -11 54 16 124 25 145 71 159 37 11 106 1
106 -16 0 -4 6 -8 13 -8 6 0 21 -3 33 -7 14 -4 26 0 37 12 26 28 85 17 106
-19 9 -16 19 -29 22 -29 10 0 -21 -131 -37 -156 -16 -23 -15 -24 6 -24 19 0
20 -2 10 -15 -7 -8 -20 -15 -29 -15 -9 0 -22 -5 -29 -12 -7 -7 -65 -11 -174
-12 -156 -1 -165 0 -203 23 -109 67 -163 117 -177 164 -6 23 -17 49 -24 57 -9
10 -11 29 -7 53 5 33 8 36 29 31 15 -4 24 -2 24 5 0 15 32 14 53 -1z m-113
-18 c0 -5 -4 -10 -10 -10 -5 0 -10 5 -10 10 0 6 5 10 10 10 6 0 10 -4 10 -10z
m854 -69 c-9 -39 -49 -96 -87 -125 -19 -14 -37 -26 -40 -26 -13 0 -7 39 8 54
8 8 15 18 15 23 0 4 15 24 34 44 18 20 36 44 39 53 11 27 38 8 31 -23z m-783
-175 c5 3 9 -6 9 -20 0 -31 -22 -39 -36 -12 -7 15 -8 25 0 35 7 9 11 10 14 2
2 -6 8 -9 13 -5z"/>
<path d="M1306 2075 c4 -8 8 -15 10 -15 2 0 4 7 4 15 0 8 -4 15 -10 15 -5 0
-7 -7 -4 -15z"/>
<path d="M1570 2066 c0 -16 5 -26 15 -26 8 0 15 6 15 14 0 7 -7 19 -15 26 -13
11 -15 8 -15 -14z"/>
<path d="M1340 2060 c0 -5 5 -10 11 -10 5 0 7 5 4 10 -3 6 -8 10 -11 10 -2 0
-4 -4 -4 -10z"/>
<path d="M2063 2053 c-20 -7 -15 -19 7 -20 11 -1 20 2 20 7 0 12 -13 18 -27
13z"/>
<path d="M3399 2030 c-6 -21 -5 -50 3 -50 5 0 8 -5 6 -12 -6 -16 17 -81 30
-86 7 -2 5 20 -4 59 -13 56 -31 102 -35 89z"/>
<path d="M1452 1998 c-16 -16 -15 -28 2 -28 9 0 14 9 13 20 -1 11 -2 20 -2 20
-1 0 -6 -5 -13 -12z"/>
<path d="M1700 1990 c-6 -11 -8 -20 -6 -20 3 0 10 9 16 20 6 11 8 20 6 20 -3
0 -10 -9 -16 -20z"/>
<path d="M2020 1995 c7 -9 15 -13 17 -11 7 7 -7 26 -19 26 -6 0 -6 -6 2 -15z"/>
<path d="M2075 1990 c3 -5 8 -10 11 -10 2 0 4 5 4 10 0 6 -5 10 -11 10 -5 0
-7 -4 -4 -10z"/>
<path d="M1746 1981 c-4 -7 -5 -15 -2 -18 9 -9 19 4 14 18 -4 11 -6 11 -12 0z"/>
<path d="M1986 1981 c-4 -7 -5 -15 -2 -18 9 -9 19 4 14 18 -4 11 -6 11 -12 0z"/>
<path d="M1940 1973 c0 -5 4 -14 9 -21 6 -10 10 -9 14 7 3 14 0 21 -9 21 -8 0
-14 -3 -14 -7z"/>
<path d="M1460 1940 c0 -5 4 -10 9 -10 6 0 13 5 16 10 3 6 -1 10 -9 10 -9 0
-16 -4 -16 -10z"/>
<path d="M1983 1943 c11 -3 16 -11 13 -18 -4 -11 0 -12 17 -6 31 12 23 26 -15
27 -18 1 -25 0 -15 -3z"/>
<path d="M1740 1924 c0 -8 5 -12 10 -9 6 3 10 10 10 16 0 5 -4 9 -10 9 -5 0
-10 -7 -10 -16z"/>
<path d="M1411 1909 c7 -14 14 -18 21 -11 13 13 2 32 -18 32 -12 0 -13 -4 -3
-21z"/>
<path d="M2045 1920 c-3 -5 -1 -10 4 -10 6 0 11 5 11 10 0 6 -2 10 -4 10 -3 0
-8 -4 -11 -10z"/>
<path d="M3217 1913 c-5 -8 -18 -74 -21 -108 -1 -13 -8 -19 -18 -17 -9 1 -19
-2 -23 -8 -3 -5 1 -10 10 -10 21 0 31 -30 14 -41 -10 -6 -10 -9 -1 -9 8 0 12
-18 12 -54 0 -30 4 -57 9 -61 18 -11 34 40 33 105 -1 36 6 91 15 122 8 32 13
64 10 73 -7 16 -32 21 -40 8z"/>
<path d="M1627 1903 c-4 -3 -7 -11 -7 -17 0 -6 5 -5 12 2 6 6 9 14 7 17 -3 3
-9 2 -12 -2z"/>
<path d="M3401 1900 c0 -8 4 -22 9 -30 12 -18 12 -2 0 25 -6 13 -9 15 -9 5z"/>
<path d="M1745 1891 c-3 -5 -1 -12 5 -16 5 -3 10 1 10 9 0 18 -6 21 -15 7z"/>
<path d="M1960 1890 c0 -5 5 -10 10 -10 6 0 10 5 10 10 0 6 -4 10 -10 10 -5 0
-10 -4 -10 -10z"/>
<path d="M3480 1879 c0 -11 4 -18 10 -14 5 3 7 12 3 20 -7 21 -13 19 -13 -6z"/>
<path d="M3160 1841 c0 -6 5 -13 10 -16 6 -3 10 1 10 9 0 9 -4 16 -10 16 -5 0
-10 -4 -10 -9z"/>
<path d="M1505 1830 c-3 -5 1 -10 9 -10 9 0 16 5 16 10 0 6 -4 10 -9 10 -6 0
-13 -4 -16 -10z"/>
<path d="M3382 1810 c0 -14 2 -19 5 -12 2 6 2 18 0 25 -3 6 -5 1 -5 -13z"/>
<path d="M1420 1815 c0 -15 44 -53 56 -48 19 7 18 28 -2 44 -15 12 -16 11 -10
-11 l7 -25 -20 23 c-18 21 -31 28 -31 17z"/>
<path d="M3490 1803 c0 -4 5 -15 10 -23 8 -13 10 -13 10 2 0 9 -4 20 -10 23
-5 3 -10 3 -10 -2z"/>
<path d="M3021 1775 c0 -14 28 -50 34 -43 3 3 -3 16 -14 29 -11 13 -20 20 -20
14z"/>
<path d="M1686 1753 c-6 -14 -5 -15 5 -6 7 7 10 15 7 18 -3 3 -9 -2 -12 -12z"/>
<path d="M1430 1753 c0 -4 5 -15 10 -23 8 -13 10 -13 10 2 0 9 -4 20 -10 23
-5 3 -10 3 -10 -2z"/>
<path d="M3373 1726 c1 -11 9 -21 17 -23 10 -3 11 -2 4 4 -6 4 -14 15 -17 23
-5 11 -6 9 -4 -4z"/>
<path d="M3305 1720 c-3 -5 0 -10 7 -11 7 0 22 -2 33 -4 20 -4 20 -4 1 11 -23
17 -33 18 -41 4z"/>
<path d="M1606 1665 c-3 -9 0 -15 9 -15 8 0 15 7 15 15 0 8 -4 15 -9 15 -5 0
-11 -7 -15 -15z"/>
<path d="M3126 1671 c-4 -7 -5 -15 -2 -18 9 -9 19 4 14 18 -4 11 -6 11 -12 0z"/>
<path d="M3380 1661 c0 -5 -3 -18 -7 -28 -6 -16 -5 -16 10 -4 19 15 23 41 7
41 -5 0 -10 -4 -10 -9z"/>
<path d="M1640 1590 c0 -5 5 -10 11 -10 5 0 7 5 4 10 -3 6 -8 10 -11 10 -2 0
-4 -4 -4 -10z"/>
<path d="M3370 1581 c0 -11 5 -23 10 -26 6 -3 10 -1 10 5 0 6 4 9 9 5 5 -3 13
0 16 6 8 13 6 15 -22 23 -19 6 -23 3 -23 -13z"/>
<path d="M1470 1590 c-7 -18 -5 -49 3 -41 5 5 7 17 4 27 -3 11 -6 17 -7 14z"/>
<path d="M1695 1570 c3 -5 10 -10 16 -10 5 0 9 5 9 10 0 6 -7 10 -16 10 -8 0
-12 -4 -9 -10z"/>
<path d="M3206 1571 c-4 -7 -5 -15 -2 -18 9 -9 19 4 14 18 -4 11 -6 11 -12 0z"/>
<path d="M1641 1543 c-8 -17 -9 -29 -2 -36 7 -7 14 -1 22 16 7 15 17 23 23 20
6 -4 5 1 -3 10 -18 23 -26 21 -40 -10z"/>
<path d="M3257 1520 c-17 -25 -10 -45 15 -38 9 2 12 12 8 33 l-5 30 -18 -25z"/>
<path d="M1695 1520 c3 -5 8 -10 11 -10 2 0 4 5 4 10 0 6 -5 10 -11 10 -5 0
-7 -4 -4 -10z"/>
<path d="M3030 1515 c-7 -8 -14 -38 -16 -67 -3 -46 -2 -51 10 -35 7 9 11 28 9
41 -3 13 0 34 7 46 14 26 8 36 -10 15z"/>
<path d="M1537 1456 c-15 -12 -16 -18 -8 -35 15 -26 14 -28 -10 -34 -15 -4
-19 -11 -15 -25 4 -12 0 -26 -9 -36 -9 -9 -13 -16 -8 -16 13 0 27 13 39 35 6
11 21 21 33 23 11 2 21 10 21 19 0 13 -3 13 -15 3 -12 -10 -15 -10 -16 1 0 8
-2 22 -4 32 -2 9 3 24 12 32 18 19 4 19 -20 1z"/>
<path d="M3271 1430 c0 -33 1 -34 10 -11 6 16 6 28 -1 35 -7 7 -10 -1 -9 -24z"/>
<path d="M3120 1353 c0 -25 1 -26 16 -11 9 9 13 21 10 27 -13 20 -26 11 -26
-16z"/>
<path d="M1566 1335 c-3 -8 -1 -15 4 -15 6 0 10 7 10 15 0 8 -2 15 -4 15 -2 0
-6 -7 -10 -15z"/>
<path d="M1597 1297 c-3 -9 -2 -19 4 -23 15 -9 18 -2 9 20 -6 17 -7 18 -13 3z"/>
<path d="M1570 1208 c1 -22 24 -44 48 -44 18 0 22 6 22 31 0 21 -3 26 -9 16
-5 -8 -14 -10 -22 -6 -9 6 -11 3 -6 -8 3 -10 2 -17 -3 -17 -6 0 -10 6 -10 14
0 8 -4 18 -10 21 -5 3 -10 0 -10 -7z"/>
<path d="M3093 1110 c0 -25 2 -35 4 -22 2 12 2 32 0 45 -2 12 -4 2 -4 -23z"/>
<path d="M1591 1135 c0 -5 6 -19 14 -29 8 -11 15 -15 15 -10 0 6 -7 19 -15 30
-8 10 -14 15 -14 9z"/>
<path d="M1710 1090 c-9 -6 -10 -10 -3 -10 6 0 15 5 18 10 8 12 4 12 -15 0z"/>
<path d="M2950 1074 c0 -14 4 -23 10 -19 6 3 10 15 10 26 0 10 -4 19 -10 19
-5 0 -10 -12 -10 -26z"/>
<path d="M1683 1047 c-17 -19 -17 -20 -1 -14 10 3 21 1 24 -5 5 -8 10 -5 15 8
7 19 7 19 15 -1 4 -11 13 -25 18 -31 12 -13 46 -6 46 8 0 6 -9 8 -20 5 -13 -3
-20 0 -21 9 -1 8 -2 19 -3 26 -2 20 -54 17 -73 -5z"/>
<path d="M2746 1015 c-3 -9 0 -15 8 -15 7 0 13 7 13 15 0 8 -4 15 -8 15 -4 0
-9 -7 -13 -15z"/>
<path d="M1650 1010 c0 -5 7 -10 16 -10 8 0 12 5 9 10 -3 6 -10 10 -16 10 -5
0 -9 -4 -9 -10z"/>
<path d="M3094 1012 c-12 -8 -15 -42 -3 -42 8 0 23 39 17 45 -2 2 -8 1 -14 -3z"/>
<path d="M2715 969 c-8 -23 -1 -34 14 -24 13 8 15 45 2 45 -5 0 -13 -9 -16
-21z"/>
<path d="M2885 981 c-3 -5 -1 -12 5 -16 5 -3 10 1 10 9 0 18 -6 21 -15 7z"/>
<path d="M1692 968 c-13 -13 1 -38 21 -38 8 0 8 3 0 11 -6 6 -9 18 -6 25 6 17
1 18 -15 2z"/>
<path d="M1758 962 c-4 -12 -2 -25 4 -28 15 -10 19 1 10 26 l-9 24 -5 -22z"/>
<path d="M3070 936 c0 -9 4 -16 9 -16 9 0 -1 -69 -13 -88 -4 -6 1 -10 11 -9
24 1 30 91 8 113 -13 14 -15 14 -15 0z"/>
<path d="M1721 903 c0 -12 3 -24 8 -28 5 -3 8 -25 7 -50 -2 -25 2 -52 9 -62
19 -25 30 -9 16 24 -15 38 -10 88 9 88 9 0 16 -11 18 -30 2 -23 0 -27 -7 -15
-9 13 -11 13 -11 -2 0 -10 6 -18 13 -18 8 0 14 -6 15 -12 13 -133 51 -268 74
-268 11 0 9 12 -16 100 -21 72 -21 94 0 86 13 -5 15 -2 9 11 -4 10 -8 28 -9
41 -1 13 -9 29 -18 36 -25 18 -32 60 -14 75 9 8 16 18 16 23 0 6 -8 4 -17 -3
-10 -8 -14 -9 -10 -2 10 15 -12 28 -25 15 -6 -6 -17 -8 -24 -5 -8 3 -14 -1
-14 -11 0 -24 -18 -19 -23 7 -4 22 -4 22 -6 0z"/>
<path d="M2672 899 c-13 -5 -26 -18 -29 -29 -3 -11 -12 -20 -21 -20 -8 0 -13
-3 -9 -6 8 -9 47 6 47 18 0 5 10 18 23 29 25 21 23 22 -11 8z"/>
<path d="M1856 841 c-9 -14 2 -51 15 -51 11 0 12 30 0 49 -6 9 -11 10 -15 2z"/>
<path d="M2030 790 c0 -5 7 -10 15 -10 8 0 15 5 15 10 0 6 -7 10 -15 10 -8 0
-15 -4 -15 -10z"/>
<path d="M2540 785 c-11 -13 -10 -14 4 -9 9 3 16 10 16 15 0 13 -6 11 -20 -6z"/>
<path d="M1887 783 c-3 -5 1 -35 9 -68 8 -33 16 -77 19 -97 3 -21 11 -38 16
-38 6 0 7 9 4 21 -5 15 -4 19 4 15 6 -4 11 -3 11 3 0 5 -4 13 -10 16 -16 10
-11 28 6 21 13 -5 15 -2 9 11 -4 10 -7 26 -7 37 1 10 -2 16 -5 12 -10 -9 -45
44 -39 59 5 15 -9 21 -17 8z"/>
<path d="M1681 773 c0 -4 4 -17 9 -28 8 -19 9 -19 9 2 1 12 -3 25 -9 28 -5 3
-10 3 -9 -2z"/>
<path d="M2590 766 c0 -9 5 -16 10 -16 6 0 10 4 10 9 0 6 -4 13 -10 16 -5 3
-10 -1 -10 -9z"/>
<path d="M2095 730 c3 -5 11 -10 16 -10 6 0 7 5 4 10 -3 6 -11 10 -16 10 -6 0
-7 -4 -4 -10z"/>
<path d="M2977 733 c-4 -3 -7 -13 -7 -22 1 -13 3 -13 11 2 11 19 8 33 -4 20z"/>
<path d="M1875 700 c-3 -5 -1 -10 4 -10 6 0 11 5 11 10 0 6 -2 10 -4 10 -3 0
-8 -4 -11 -10z"/>
<path d="M1985 650 c3 -5 8 -10 11 -10 2 0 4 5 4 10 0 6 -5 10 -11 10 -5 0 -7
-4 -4 -10z"/>
<path d="M1800 618 c0 -16 5 -28 10 -28 13 0 13 20 0 40 -8 12 -10 9 -10 -12z"/>
<path d="M2180 610 c0 -5 5 -10 11 -10 5 0 7 5 4 10 -3 6 -8 10 -11 10 -2 0
-4 -4 -4 -10z"/>
<path d="M2205 581 c-7 -12 12 -24 25 -16 11 7 4 25 -10 25 -5 0 -11 -4 -15
-9z"/>
<path d="M2191 527 c-8 -8 -8 -14 0 -24 17 -19 39 -16 39 6 0 23 -23 34 -39
18z"/>
<path d="M2753 528 c-19 -24 -23 -48 -9 -48 8 0 17 12 20 26 8 31 3 40 -11 22z"/>
<path d="M1920 510 c0 -5 4 -10 9 -10 6 0 13 5 16 10 3 6 -1 10 -9 10 -9 0
-16 -4 -16 -10z"/>
<path d="M1834 435 c14 -40 36 -68 36 -46 0 13 -38 81 -45 81 -1 0 3 -16 9
-35z"/>
<path d="M1910 435 c0 -8 4 -15 10 -15 5 0 7 7 4 15 -4 8 -8 15 -10 15 -2 0
-4 -7 -4 -15z"/>
<path d="M2005 430 c3 -5 11 -10 16 -10 6 0 7 5 4 10 -3 6 -11 10 -16 10 -6 0
-7 -4 -4 -10z"/>
<path d="M2070 410 c0 -5 5 -10 11 -10 5 0 7 5 4 10 -3 6 -8 10 -11 10 -2 0
-4 -4 -4 -10z"/>
<path d="M1970 366 c0 -2 7 -9 15 -16 9 -7 15 -8 15 -2 0 5 -7 12 -15 16 -8 3
-15 4 -15 2z"/>
<path d="M2046 345 c4 -8 10 -15 15 -15 4 0 6 7 3 15 -4 8 -10 15 -15 15 -4 0
-6 -7 -3 -15z"/>
<path d="M2210 300 c0 -5 5 -10 11 -10 5 0 7 5 4 10 -3 6 -8 10 -11 10 -2 0
-4 -4 -4 -10z"/>
<path d="M2400 300 c0 -5 5 -10 11 -10 5 0 7 5 4 10 -3 6 -8 10 -11 10 -2 0
-4 -4 -4 -10z"/>
<path d="M2212 263 c-10 -4 -8 -11 9 -29 23 -25 25 -23 -26 -39 -8 -2 -15 -9
-15 -15 0 -5 7 -10 15 -10 8 0 15 -4 15 -10 0 -5 5 -10 11 -10 5 0 8 4 5 9 -3
5 1 14 9 21 8 7 12 16 10 21 -3 4 4 13 15 19 26 14 16 33 -12 24 -17 -5 -20
-3 -15 10 7 16 2 18 -21 9z"/>
<path d="M2340 230 c0 -5 7 -10 15 -10 8 0 15 5 15 10 0 6 -7 10 -15 10 -8 0
-15 -4 -15 -10z"/>
<path d="M2547 224 c-8 -8 1 -24 14 -24 5 0 9 7 9 15 0 15 -12 20 -23 9z"/>
<path d="M2098 163 c7 -3 16 -2 19 1 4 3 -2 6 -13 5 -11 0 -14 -3 -6 -6z"/>
<path d="M1118 2005 c-9 -9 4 -55 13 -49 11 7 12 54 1 54 -5 0 -11 -2 -14 -5z"/>
<path d="M1047 1956 c-6 -15 1 -26 15 -26 4 0 8 9 8 20 0 23 -15 27 -23 6z"/>
<path d="M1117 1903 c-10 -9 -8 -51 2 -57 5 -3 12 1 15 10 9 22 8 26 -5 18 -8
-4 -9 0 -4 15 6 21 4 26 -8 14z"/>
<path d="M1375 1330 c3 -5 8 -10 11 -10 2 0 4 5 4 10 0 6 -5 10 -11 10 -5 0
-7 -4 -4 -10z"/>
<path d="M3260 479 c0 -110 -17 -209 -41 -234 -5 -5 -9 -16 -9 -24 0 -31 19 6
44 87 20 63 26 104 26 170 0 48 -5 94 -10 102 -7 10 -10 -22 -10 -101z"/>
<path d="M3015 300 c-3 -5 1 -10 10 -10 9 0 13 5 10 10 -3 6 -8 10 -10 10 -2
0 -7 -4 -10 -10z"/>
<path d="M3168 138 c-22 -34 -42 -74 -31 -63 14 15 55 85 50 85 -3 0 -11 -10
-19 -22z"/>
</g>
</svg>
